<svg width="931" height="266" viewBox="0 0 931 266" fill="none" xmlns="http://www.w3.org/2000/svg">
<path d="M78.973 11.44V9.84H86.029V11.44H78.973ZM81.693 6.944H83.325V14.32H81.693V6.944Z" fill="#FBFBFB"/>
<path d="M381.973 257.44V255.84H389.029V257.44H381.973ZM384.693 252.944H386.325V260.32H384.693V252.944Z" fill="#FBFBFB"/>
<path d="M922.973 109.44V107.84H930.029V109.44H922.973ZM925.693 104.944H927.325V112.32H925.693V104.944Z" fill="#FBFBFB"/>
<path d="M820.973 15.44V13.84H828.029V15.44H820.973ZM823.693 10.944H825.325V18.32H823.693V10.944Z" fill="#FBFBFB"/>
<path d="M0.973 216.44V214.84H8.029V216.44H0.973ZM3.693 211.944H5.325V219.32H3.693V211.944Z" fill="#FBFBFB"/>
</svg>
