<svg width="225" height="170" viewBox="0 0 225 170" fill="none" xmlns="http://www.w3.org/2000/svg">
<path opacity="0.3" d="M53.9157 68.9803C38.3569 71.7627 27.36 85.4137 29.1657 100.391C30.1275 108.324 34.0257 115.368 44.055 117.391C70.6613 122.78 171.096 143.066 190.828 107.916C206.213 80.5233 197.044 61.557 182.756 49.6853C168.469 37.8137 138.881 40.2787 114.396 48.4047C96.1875 54.4623 82.6482 63.835 53.9157 68.9803Z" fill="#E6E6E6"/>
<path opacity="0.45" d="M115.65 145.588C165.673 145.588 206.224 142.569 206.224 138.845C206.224 135.12 165.673 132.101 115.65 132.101C65.6275 132.101 25.0763 135.12 25.0763 138.845C25.0763 142.569 65.6275 145.588 115.65 145.588Z" fill="#E6E6E6"/>
<path d="M64.8674 45.22C70.8135 45.22 75.6337 40.3641 75.6337 34.374C75.6337 28.3839 70.8135 23.528 64.8674 23.528C58.9214 23.528 54.1012 28.3839 54.1012 34.374C54.1012 40.3641 58.9214 45.22 64.8674 45.22Z" fill="#FFD200"/>
<path opacity="0.15" d="M64.8675 55.0517C76.2035 55.0517 85.3932 45.794 85.3932 34.374C85.3932 22.954 76.2035 13.6963 64.8675 13.6963C53.5316 13.6963 44.3419 22.954 44.3419 34.374C44.3419 45.794 53.5316 55.0517 64.8675 55.0517Z" fill="#FFD200"/>
<path d="M110.076 138.533C125.972 138.533 138.859 125.551 138.859 109.537C138.859 93.5224 125.972 80.5403 110.076 80.5403C94.1791 80.5403 81.2925 93.5224 81.2925 109.537C81.2925 125.551 94.1791 138.533 110.076 138.533Z" fill="#24285B"/>
<path d="M110.076 127.789C120.082 127.789 128.194 119.617 128.194 109.537C128.194 99.4562 120.082 91.2843 110.076 91.2843C100.069 91.2843 91.9575 99.4562 91.9575 109.537C91.9575 119.617 100.069 127.789 110.076 127.789Z" fill="white"/>
<path d="M75.3243 116.456C77.2312 116.456 77.9175 117.147 77.9175 119.062V122.366C77.9175 124.287 77.355 124.978 75.3243 124.978H70.065V135.037C70.065 136.952 69.3787 137.643 67.4718 137.643H63.7368C61.8356 137.643 61.1493 136.952 61.1493 135.037V124.978H36C34.0987 124.978 33.4125 124.287 33.4125 122.366V119.601C33.3613 118.481 33.6776 117.376 34.3125 116.456L59.625 84.8187C60.049 84.245 60.6007 83.7796 61.2357 83.4598C61.8707 83.1399 62.5713 82.9746 63.2812 82.977H67.5C69.4068 82.977 70.0931 83.5153 70.0931 85.5893V116.456H75.3243ZM61.1493 95.8743L44.6062 116.456H61.1493V95.8743Z" fill="#F26B50"/>
<path d="M184.174 116.456C186.081 116.456 186.767 117.147 186.767 119.062V122.366C186.767 124.287 186.233 124.978 184.174 124.978H178.914V135.037C178.914 136.952 178.228 137.643 176.321 137.643H172.586C170.685 137.643 169.999 136.952 169.999 135.037V124.978H144.844C142.943 124.978 142.256 124.287 142.256 122.366V119.601C142.208 118.48 142.529 117.375 143.168 116.456L168.48 84.8187C168.904 84.245 169.456 83.7796 170.091 83.4598C170.726 83.1399 171.426 82.9746 172.136 82.977H176.327C178.234 82.977 178.92 83.5153 178.92 85.5893V116.456H184.174ZM169.999 95.8743L153.456 116.456H169.999V95.8743Z" fill="#F26B50"/>
<path opacity="0.58" d="M172.884 76.8003C172.884 76.8003 168.098 75.4857 167.057 70.992C167.057 70.992 174.476 69.4847 174.69 77.197L172.884 76.8003Z" fill="#F26B50"/>
<path opacity="0.73" d="M173.475 76.3243C173.475 76.3243 170.128 70.992 173.07 66.011C173.07 66.011 178.695 69.6207 176.209 76.3357L173.475 76.3243Z" fill="#F26B50"/>
<path d="M174.336 76.33C174.336 76.33 176.102 70.6973 181.451 69.632C181.451 69.632 182.452 73.287 177.986 76.3413L174.336 76.33Z" fill="#F26B50"/>
<path d="M170.865 76.1997L171.832 82.892L177.947 82.9203L178.847 76.2337L170.865 76.1997Z" fill="#24285B"/>
<path d="M113.557 71.4623C113.557 71.4623 114.345 75.2873 114.002 77.9393C113.97 78.1972 113.888 78.4461 113.759 78.6716C113.631 78.8971 113.46 79.0947 113.255 79.2529C113.051 79.4111 112.817 79.5267 112.567 79.593C112.318 79.6594 112.058 79.6751 111.802 79.6393C110.481 79.4467 108.748 78.8007 108.079 76.806L106.526 73.5477C106.284 72.8628 106.258 72.1192 106.453 71.419C106.647 70.7189 107.052 70.0966 107.612 69.6377C109.603 67.7903 113.192 69.1333 113.557 71.4623Z" fill="#F4A28C"/>
<path d="M106.808 74.12L106.301 86.9323L113.327 86.7057L110.874 77.4747L106.808 74.12Z" fill="#F4A28C"/>
<path d="M112.618 71.7343C111.434 71.9258 110.231 71.9772 109.035 71.8873C109.44 72.3744 109.695 72.9701 109.769 73.6013C109.843 74.2324 109.733 74.8716 109.451 75.4403C109.188 75.9968 108.742 76.4437 108.187 76.7043C107.633 76.9649 107.006 77.0229 106.414 76.8683L105.891 71.8703C105.79 71.1582 105.883 70.4319 106.161 69.7691C106.438 69.1064 106.889 68.532 107.466 68.1077C107.962 67.7345 108.482 67.3956 109.024 67.0933C110.379 66.3453 112.579 67.0537 113.743 65.9317C113.861 65.8205 114.006 65.742 114.163 65.7037C114.32 65.6655 114.485 65.6687 114.64 65.7132C114.796 65.7576 114.937 65.8418 115.051 65.9575C115.165 66.0732 115.247 66.2165 115.29 66.3737C115.695 67.864 115.706 70.2837 113.766 71.3547C113.407 71.5458 113.019 71.6742 112.618 71.7343Z" fill="#24285B"/>
<path d="M109.851 75.276C109.851 75.276 109.648 73.78 108.546 74.0293C107.443 74.2787 107.724 76.4377 109.266 76.4547L109.851 75.276Z" fill="#F4A28C"/>
<path d="M113.929 73.899L115.183 75.2647C115.254 75.3428 115.305 75.4379 115.329 75.5409C115.354 75.6439 115.353 75.7515 115.325 75.8539C115.298 75.9562 115.245 76.0499 115.172 76.1262C115.099 76.2025 115.008 76.259 114.908 76.2903L113.468 76.7437L113.929 73.899Z" fill="#F4A28C"/>
<path opacity="0.31" d="M111.499 79.475C110.605 79.3571 109.764 78.979 109.08 78.387C109.08 78.387 109.451 80.7047 112.264 82.6993L111.499 79.475Z" fill="#CE8172"/>
<path d="M106.313 86.9323L113.338 86.7057C113.338 86.7057 124.374 84.8187 128.205 93.8853C132.036 102.952 127.125 115.764 127.125 115.764C127.125 115.764 123.131 129.291 106.313 127.795C106.313 127.795 92.3232 126.979 90.7425 107.661C90.671 106.818 90.5432 105.982 90.36 105.156C89.7188 102.136 89.3475 92.973 106.313 86.9323Z" fill="#F26B50"/>
<path opacity="0.08" d="M96.9019 98.9683C96.9019 98.9683 100.648 99.382 105.851 108.16C111.054 116.937 121.269 113.719 127.029 107.225L116.342 121.471L104.372 120.502L97.8637 103.048L96.9019 98.9683Z" fill="black"/>
<path d="M137.926 78.6519L135.869 78.9288L136.669 84.9612L138.726 84.6843L137.926 78.6519Z" fill="#FFD200"/>
<path opacity="0.08" d="M137.926 78.6519L135.869 78.9288L136.669 84.9612L138.726 84.6843L137.926 78.6519Z" fill="black"/>
<path d="M139.082 82.932L135.921 83.3575L136.948 91.103L140.11 90.6775L139.082 82.932Z" fill="#24285B"/>
<path d="M135 66.1697C133.666 66.3497 132.415 66.9242 131.405 67.8206C130.395 68.717 129.671 69.8949 129.326 71.2055C128.98 72.5161 129.028 73.9005 129.463 75.1836C129.899 76.4667 130.702 77.591 131.772 78.4142C132.841 79.2374 134.129 79.7226 135.473 79.8085C136.816 79.8944 138.155 79.5771 139.319 78.8967C140.483 78.2163 141.421 77.2033 142.014 75.986C142.607 74.7686 142.828 73.4014 142.65 72.0573C142.532 71.1647 142.24 70.3042 141.791 69.5252C141.343 68.7462 140.746 68.0638 140.036 67.517C139.325 66.9703 138.515 66.5699 137.651 66.3387C136.787 66.1075 135.886 66.0501 135 66.1697ZM136.541 77.7637C135.598 77.8921 134.639 77.7358 133.784 77.3145C132.929 76.8932 132.217 76.226 131.739 75.3971C131.261 74.5683 131.037 73.6151 131.097 72.6583C131.157 71.7015 131.497 70.784 132.075 70.0221C132.652 69.2601 133.441 68.6878 134.341 68.3778C135.242 68.0677 136.214 68.0337 137.133 68.2801C138.053 68.5265 138.879 69.0423 139.508 69.7621C140.136 70.4819 140.539 71.3733 140.664 72.3237C140.831 73.5919 140.494 74.8752 139.726 75.8941C138.958 76.913 137.821 77.5849 136.564 77.7637H136.541Z" fill="#FFD200"/>
<path d="M135.939 77.8543C138.608 77.8543 140.771 75.675 140.771 72.9867C140.771 70.2983 138.608 68.119 135.939 68.119C133.271 68.119 131.108 70.2983 131.108 72.9867C131.108 75.675 133.271 77.8543 135.939 77.8543Z" fill="white"/>
<path d="M90.5625 99.9203C90.7337 99.2552 91.0954 98.6556 91.6024 98.196C92.1094 97.7365 92.7395 97.4373 93.414 97.3359C94.0886 97.2344 94.7779 97.335 95.3961 97.6253C96.0142 97.9156 96.534 98.3826 96.8906 98.9683C99.5753 103.347 101.836 107.975 103.641 112.789C107.663 123.59 127.384 116.467 134.663 91.2843L138.814 93.8853C138.814 93.8853 133.088 126.593 110.036 127.795C110.036 127.795 95.6475 130.73 91.2769 112.942C91.2769 112.942 90.1519 109.593 90.0844 107.701L89.7806 105.57C89.734 103.678 89.9846 101.79 90.5231 99.977L90.5625 99.9203Z" fill="#F26B50"/>
<path opacity="0.39" d="M90.5625 99.9203C90.7337 99.2552 91.0954 98.6556 91.6024 98.196C92.1094 97.7365 92.7395 97.4373 93.414 97.3359C94.0886 97.2344 94.7779 97.335 95.3961 97.6253C96.0142 97.9156 96.534 98.3826 96.8906 98.9683C99.5753 103.347 101.836 107.975 103.641 112.789C107.663 123.59 127.384 116.467 134.663 91.2843L138.814 93.8853C138.814 93.8853 133.088 126.593 110.036 127.795C110.036 127.795 95.6475 130.73 91.2769 112.942C91.2769 112.942 90.1519 109.593 90.0844 107.701L89.7806 105.57C89.734 103.678 89.9846 101.79 90.5231 99.977L90.5625 99.9203Z" fill="white"/>
<path d="M135.714 91.919C135.714 91.919 136.136 86.53 138.341 86.5413C140.546 86.5527 145.727 90.542 137.728 93.177L135.714 91.919Z" fill="#F4A28C"/>
<path d="M193.213 50.7733C193.213 49.7574 192.813 48.783 192.099 48.0646C191.386 47.3463 190.419 46.9427 189.411 46.9427C189.205 46.9425 189 46.9596 188.798 46.9937C188.361 46.1734 187.712 45.4874 186.92 45.0085C186.128 44.5296 185.221 44.2757 184.298 44.2737H184.112C184.335 43.37 184.351 42.4271 184.158 41.5164C183.966 40.6056 183.57 39.751 183.001 39.0174C182.431 38.2838 181.704 37.6905 180.873 37.2824C180.042 36.8743 179.13 36.6622 178.206 36.6622C177.281 36.6622 176.369 36.8743 175.538 37.2824C174.708 37.6905 173.98 38.2838 173.411 39.0174C172.841 39.751 172.445 40.6056 172.253 41.5164C172.06 42.4271 172.076 43.37 172.299 44.2737H172.114C171.426 44.2507 170.741 44.3673 170.099 44.6166C169.457 44.8658 168.872 45.2426 168.377 45.7245C167.883 46.2064 167.489 46.7836 167.221 47.4217C166.952 48.0598 166.814 48.7458 166.814 49.4388C166.814 50.1319 166.952 50.8179 167.221 51.456C167.489 52.0941 167.883 52.6713 168.377 53.1532C168.872 53.6351 169.457 54.0118 170.099 54.2611C170.741 54.5103 171.426 54.6269 172.114 54.604H189.906V54.57C190.82 54.4479 191.659 53.9957 192.267 53.2975C192.876 52.5992 193.212 51.7023 193.213 50.7733Z" fill="#E6E6E6"/>
<path d="M45.3937 88.689C45.3937 88.2574 45.3093 87.83 45.1454 87.4313C44.9814 87.0325 44.7411 86.6702 44.4382 86.365C44.1352 86.0598 43.7756 85.8177 43.3797 85.6525C42.9839 85.4874 42.5597 85.4023 42.1312 85.4023C41.956 85.4057 41.7813 85.4208 41.6081 85.4477C41.2316 84.7426 40.6723 84.1537 39.9898 83.7435C39.3073 83.3334 38.5272 83.1174 37.7325 83.1187H37.575C37.7685 82.3431 37.7839 81.5332 37.62 80.7507C37.456 79.9683 37.1171 79.2337 36.629 78.6031C36.1408 77.9724 35.5164 77.4622 34.803 77.1113C34.0897 76.7604 33.3063 76.578 32.5125 76.578C31.7186 76.578 30.9352 76.7604 30.2219 77.1113C29.5086 77.4622 28.8841 77.9724 28.396 78.6031C27.9078 79.2337 27.5689 79.9683 27.405 80.7507C27.2411 81.5332 27.2564 82.3431 27.45 83.1187H27.2925C26.702 83.0974 26.1132 83.1962 25.5615 83.4092C25.0097 83.6221 24.5062 83.9449 24.0809 84.3582C23.6557 84.7715 23.3175 85.2669 23.0865 85.8148C22.8555 86.3627 22.7365 86.9519 22.7365 87.5472C22.7365 88.1424 22.8555 88.7316 23.0865 89.2795C23.3175 89.8274 23.6557 90.3228 24.0809 90.7361C24.5062 91.1494 25.0097 91.4722 25.5615 91.6852C26.1132 91.8982 26.702 91.997 27.2925 91.9757H42.5531V91.9473C43.338 91.843 44.0587 91.4552 44.5811 90.8559C45.1036 90.2566 45.3923 89.4866 45.3937 88.689Z" fill="#E6E6E6"/>
</svg>
