<svg width="28" height="28" viewBox="0 0 28 28" fill="none" xmlns="http://www.w3.org/2000/svg">
<rect width="28" height="28" rx="4" fill="#FBFBFB"/>
<g clip-path="url(#clip0_50_997)">
<path d="M13.2433 3.72374L3.72234 13.2369C3.21047 13.7483 3.21047 14.5744 3.72234 15.0858L13.2433 24.599C13.7552 25.1104 14.5819 25.1104 15.0938 24.599L19.0858 20.6103C19.5442 20.1522 19.5442 19.4096 19.0858 18.9516C18.6274 18.4935 17.8841 18.4935 17.4257 18.9516L14.3994 21.9754C14.272 22.1027 14.0787 22.1027 13.9513 21.9754L6.34809 14.3785C6.22069 14.2512 6.22069 14.058 6.34809 13.9307L13.9513 6.33374C14.0787 6.20645 14.272 6.20645 14.3994 6.33374L17.4257 9.35756C17.8841 9.8156 18.6274 9.8156 19.0858 9.35756C19.5442 8.89953 19.5442 8.15691 19.0858 7.69888L15.0942 3.71058C14.5803 3.21021 13.7532 3.21426 13.2433 3.72374Z" fill="url(#paint0_linear_50_997)"/>
<path d="M13.2433 3.72374L3.72234 13.2369C3.21047 13.7483 3.21047 14.5744 3.72234 15.0858L13.2433 24.599C13.7552 25.1104 14.5819 25.1104 15.0938 24.599L19.0858 20.6103C19.5442 20.1522 19.5442 19.4096 19.0858 18.9516C18.6274 18.4935 17.8841 18.4935 17.4257 18.9516L14.3994 21.9754C14.272 22.1027 14.0787 22.1027 13.9513 21.9754L6.34809 14.3785C6.22069 14.2512 6.22069 14.058 6.34809 13.9307L13.9513 6.33374C14.2685 6.06026 14.7861 5.50634 15.5462 5.37679C16.111 5.2805 16.7286 5.49242 17.3989 6.01253C16.9508 5.56479 16.1825 4.79747 15.0942 3.71058C14.5803 3.21021 13.7532 3.21426 13.2433 3.72374Z" fill="url(#paint1_linear_50_997)"/>
<path d="M20.0073 18.0668C20.4657 18.5249 21.2089 18.5249 21.6674 18.0668L24.6121 15.1246C25.1239 14.6131 25.1239 13.7871 24.6121 13.2757L21.6417 10.3183C21.1822 9.86078 20.4388 9.86144 19.9801 10.3197C19.5217 10.7778 19.5217 11.5204 19.9801 11.9784L21.9863 13.983C22.1137 14.1103 22.1137 14.3035 21.9863 14.4308L20.0073 16.4082C19.5489 16.8662 19.5489 17.6088 20.0073 18.0668Z" fill="url(#paint2_linear_50_997)"/>
<path d="M14.2162 16.7775C15.6359 16.7775 16.7868 15.6275 16.7868 14.2089C16.7868 12.7904 15.6359 11.6404 14.2162 11.6404C12.7964 11.6404 11.6455 12.7904 11.6455 14.2089C11.6455 15.6275 12.7964 16.7775 14.2162 16.7775Z" fill="url(#paint3_linear_50_997)"/>
</g>
<defs>
<linearGradient id="paint0_linear_50_997" x1="1002.64" y1="3.33849" x2="1907.41" y2="555.867" gradientUnits="userSpaceOnUse">
<stop stop-color="#4285EB"/>
<stop offset="1" stop-color="#2EC7FF"/>
</linearGradient>
<linearGradient id="paint1_linear_50_997" x1="1123.99" y1="3.33843" x2="677.12" y2="2312.9" gradientUnits="userSpaceOnUse">
<stop stop-color="#29CDFF"/>
<stop offset="0.378601" stop-color="#148EFF"/>
<stop offset="1" stop-color="#0A60FF"/>
</linearGradient>
<linearGradient id="paint2_linear_50_997" x1="393.156" y1="-99.4604" x2="-188.294" y2="809.88" gradientUnits="userSpaceOnUse">
<stop stop-color="#FA816E"/>
<stop offset="0.414726" stop-color="#F74A5C"/>
<stop offset="1" stop-color="#F51D2C"/>
</linearGradient>
<linearGradient id="paint3_linear_50_997" x1="361.914" y1="-171.706" x2="168.448" y2="602.187" gradientUnits="userSpaceOnUse">
<stop stop-color="#FA8E7D"/>
<stop offset="0.512635" stop-color="#F74A5C"/>
<stop offset="1" stop-color="#F51D2C"/>
</linearGradient>
<clipPath id="clip0_50_997">
<rect width="21.7" height="21.7" fill="white" transform="translate(3.33844 3.33844)"/>
</clipPath>
</defs>
</svg>
