<svg width="246" height="185" viewBox="0 0 246 185" fill="none" xmlns="http://www.w3.org/2000/svg">
<path opacity="0.45" d="M123.111 159.47C172.361 159.47 212.286 153.749 212.286 146.693C212.286 139.636 172.361 133.915 123.111 133.915C73.8607 133.915 33.9357 139.636 33.9357 146.693C33.9357 153.749 73.8607 159.47 123.111 159.47Z" fill="#E6E6E6"/>
<path opacity="0.58" d="M189.039 135.667C189.039 135.667 182.809 133.989 181.425 128.18C181.425 128.18 191.068 126.182 191.388 136.197L189.039 135.667Z" fill="#F26B50"/>
<path opacity="0.73" d="M189.801 135.05C189.801 135.05 185.423 128.168 189.223 121.705C189.223 121.705 196.603 126.349 193.356 135.05H189.801Z" fill="#F26B50"/>
<path d="M190.927 135.05C190.927 135.05 193.19 127.755 200.152 126.349C200.152 126.349 201.474 131.072 195.693 135.05H190.927Z" fill="#F26B50"/>
<path d="M186.406 134.871L187.704 143.529H195.656L196.794 134.871H186.406Z" fill="#24285B"/>
<path d="M111.223 107.701L104.458 143.054H137.459L130.694 107.701H111.223Z" fill="#C9C9C9"/>
<path d="M58.3143 32.7758H187.157V116.852H62.1642C61.1432 116.852 60.1639 116.445 59.4419 115.722C58.7199 114.998 58.3143 114.016 58.3143 112.992V32.7758Z" fill="#E6E6E6"/>
<path d="M141.764 139.564H99.9436V146.699H141.764V139.564Z" fill="#E6E6E6"/>
<path opacity="0.56" d="M187.157 32.7758H58.3143V107.189H187.157V32.7758Z" fill="white"/>
<path opacity="0.08" d="M61.4631 64.1333C61.4631 64.1333 64.5381 61.5865 65.4975 66.3533C66.4569 71.1202 64.7595 77.1203 68.2096 81.215C71.6598 85.3097 84.298 71.9342 90.6879 94.3993L93.2709 96.9523L102.305 89.318L116.081 94.5782L138.689 90.0333L144.433 66.1622L147.508 63.3008C147.508 63.3008 158.731 82.325 141.222 98.568C141.222 98.568 128.787 109.304 108.75 101.238L104.796 99.1847L92.2807 116.865L81.8934 116.735L72.4654 101.238L60.3438 77.589L58.6587 64.3492L61.4631 64.1333Z" fill="black"/>
<path d="M59.3168 145.231C59.3168 145.231 58.2159 146.582 58.8617 147.92C59.5074 149.258 58.4681 150.331 57.4656 149.381C56.4632 148.432 56.168 144.596 56.168 144.596L58.0499 143.585L59.3168 145.231Z" fill="#F26B50"/>
<path d="M70.725 79.6302C70.725 79.6302 78.5232 79.55 81.5982 86.95C84.6732 94.35 84.9807 106.171 84.9807 106.171L99.1257 96.9215L83.1357 112.474L76.7643 104.315L70.725 79.6302Z" fill="#F26B50"/>
<path opacity="0.3" d="M70.725 79.6302C70.725 79.6302 78.5232 79.55 81.5982 86.95C84.6732 94.35 84.9807 106.171 84.9807 106.171L99.1257 96.9215L83.1357 112.474L76.7643 104.315L70.725 79.6302Z" fill="white"/>
<path d="M91.5366 135.377C91.5366 135.377 92.207 136.986 93.6891 137.03C95.1713 137.073 95.6387 138.509 94.3041 138.953C92.9696 139.397 89.4825 137.868 89.4825 137.868V135.728L91.5366 135.377Z" fill="#F26B50"/>
<path d="M59.9748 67.303C60.985 68.7895 61.7917 70.4052 62.3733 72.1068C62.429 72.3133 62.4434 72.5289 62.4156 72.741C62.3879 72.9531 62.3186 73.1576 62.2117 73.3427C62.1048 73.5279 61.9624 73.69 61.7928 73.8197C61.6231 73.9495 61.4296 74.0443 61.2232 74.0987C60.5699 74.3166 59.8676 74.3405 59.201 74.1677C58.5343 73.9948 57.9317 73.6325 57.4656 73.1243L55.2454 71.1387C54.8416 70.6946 54.5851 70.1358 54.5113 69.5394C54.4375 68.9429 54.55 68.3383 54.8334 67.8087C55.7805 65.7675 58.9477 65.6195 59.9748 67.303Z" fill="#F4A28C"/>
<path d="M56.2479 71.0647L57.7178 79.8583L63.671 80.1358L60.2085 73.26L56.2479 71.0647Z" fill="#F4A28C"/>
<path d="M61.0326 69.0667L62.4286 69.6833C62.507 69.72 62.5749 69.7758 62.6262 69.8457C62.6774 69.9155 62.7104 69.9971 62.722 70.083C62.7336 70.1689 62.7236 70.2564 62.6927 70.3374C62.6619 70.4184 62.6113 70.4904 62.5455 70.5467L61.5861 71.3607L61.0326 69.0667Z" fill="#F4A28C"/>
<path opacity="0.31" d="M60.7251 74.296C60.0095 74.3397 59.2955 74.1884 58.6587 73.8582C58.6587 73.8582 58.8309 76.1707 61.7337 76.2632L60.7251 74.296Z" fill="#CE8172"/>
<path d="M45.9036 86.728C52.7977 77.7925 68.6094 76.8613 76.0386 81.9673C83.3879 87.0302 79.8578 116.976 79.8578 116.976L62.1396 121.872C62.1396 121.872 35.8668 101.892 45.9036 86.728Z" fill="#F26B50"/>
<path d="M62.1642 121.872L64.3844 127.243C64.6766 128.81 64.6348 130.421 64.2617 131.971C63.8886 133.52 63.1926 134.973 62.2196 136.234L56.6846 143.381L59.7596 145.57L67.7546 139.169C69.3965 137.86 70.7243 136.198 71.6397 134.306C72.5552 132.414 73.0349 130.339 73.0436 128.236V125.486L76.014 118.363L62.1642 121.872Z" fill="#24285B"/>
<path opacity="0.08" d="M53.9786 84.175C53.9786 84.175 62.4902 87.6098 61.7153 96.385C60.9404 105.16 63.5603 110.568 77.2317 110.063L75.03 118.289L62.1581 121.872C57.8212 117.628 54.0226 112.864 50.8482 107.689L50.0118 106.332L54.0401 94.7077L53.9786 84.175Z" fill="black"/>
<path d="M62.1642 121.872L70.4359 127.897L81.3768 124.499C81.9106 124.334 82.4723 124.281 83.0275 124.342C83.5826 124.403 84.1195 124.577 84.6051 124.853C85.0906 125.13 85.5146 125.503 85.8511 125.95C86.1875 126.397 86.4291 126.909 86.5612 127.453L88.56 135.808L92.25 135.494L91.0507 124.203C90.833 122.169 89.88 120.286 88.3718 118.909C86.8636 117.532 84.9047 116.756 82.8651 116.729C77.302 116.653 71.7844 117.743 66.666 119.929L62.1642 121.872Z" fill="#24285B"/>
<path d="M56.6662 73.5622L56.1065 73.1922C54.5216 72.1947 52.7787 71.4752 50.9528 71.0647C50.7352 71.0062 50.5278 70.9147 50.3378 70.7933C50.097 70.64 49.895 70.4328 49.7476 70.188C49.6001 69.9432 49.5113 69.6674 49.4881 69.3824C49.4648 69.0974 49.5078 68.8108 49.6136 68.5453C49.7195 68.2797 49.8852 68.0423 50.098 67.8518C51.3895 66.563 49.3231 66.1745 49.7597 64.8363C50.1472 63.6585 51.1742 63.566 52.0291 64.454C52.8839 65.342 54.3538 64.6637 53.708 63.6092C53.0623 62.5547 53.9602 61.7098 55.4485 62.0675C56.9368 62.4252 56.6785 64.2752 57.8777 62.789C59.077 61.3028 60.6514 61.0377 61.0204 62.6842C61.3894 64.3307 62.7608 66.2978 59.692 66.9577C56.6231 67.6175 55.8052 66.193 55.6945 68.2465C55.6084 70.1643 58.2467 70.7008 56.6662 73.5622Z" fill="#24285B"/>
<path d="M57.3119 70.1643C57.3119 70.1643 56.1557 69.1777 55.4669 70.115C54.7781 71.0523 56.4632 72.4768 57.644 71.447L57.3119 70.1643Z" fill="#F4A28C"/>
<path d="M107.48 88.434L101.93 82.9499L82.7767 102.439L88.3267 107.923L107.48 88.434Z" fill="#24285B"/>
<path opacity="0.3" d="M107.48 88.434L101.93 82.9499L82.7767 102.439L88.3267 107.923L107.48 88.434Z" fill="white"/>
<path d="M98.2171 101.819L89.0883 92.7988L67.6471 114.616L76.776 123.636L98.2171 101.819Z" fill="#24285B"/>
<path d="M139.974 49.95C136.039 46.0615 131.042 43.4303 125.616 42.3892C120.19 41.3482 114.577 41.9439 109.489 44.1012C104.4 46.2585 100.064 49.8804 97.0281 54.5089C93.9924 59.1374 92.3937 64.5646 92.4341 70.1041C92.4745 75.6437 94.1523 81.0469 97.2552 85.6303C100.358 90.2138 104.747 93.7716 109.867 95.854C114.986 97.9364 120.607 98.4497 126.017 97.3292C131.428 96.2086 136.385 93.5044 140.263 89.5585C145.463 84.2676 148.353 77.1222 148.299 69.6942C148.245 62.2663 145.25 55.1641 139.974 49.95ZM105.725 84.7917C102.789 81.8866 100.778 78.1741 99.9454 74.1232C99.1132 70.0724 99.4973 65.8651 101.049 62.0331C102.601 58.2011 105.251 54.9164 108.664 52.5941C112.077 50.2719 116.1 49.0164 120.225 48.9862C124.35 48.956 128.391 50.1526 131.837 52.4247C135.284 54.6968 137.981 57.9424 139.589 61.7513C141.196 65.5602 141.641 69.7615 140.868 73.824C140.095 77.8866 138.138 81.6282 135.245 84.5758C133.321 86.5352 131.032 88.0952 128.507 89.1665C125.982 90.2379 123.271 90.7997 120.529 90.8197C117.788 90.8398 115.069 90.3177 112.529 89.2834C109.988 88.249 107.676 86.7227 105.725 84.7917Z" fill="#FFD200"/>
<path d="M79.7716 114.083L80.3436 116.988C80.3436 116.988 85.4973 117.857 86.4444 114.558C87.3915 111.259 80.7556 112.437 79.7716 114.083Z" fill="#F4A28C"/>
<path d="M55.1409 84.8472C53.9395 83.9826 52.4652 83.5865 50.9937 83.7329C49.5222 83.8793 48.1543 84.5582 47.1459 85.6427C42.3919 90.65 36.5617 104.833 43.6219 114.201C52.4595 125.917 64.5627 121.835 80.3436 117L79.5994 113.232C79.5994 113.232 50.1716 117.204 53.3881 104.47C55.9649 94.387 59.4274 88.0785 55.1409 84.8472Z" fill="#F26B50"/>
<path opacity="0.3" d="M55.1409 84.8472C53.9395 83.9826 52.4652 83.5865 50.9937 83.7329C49.5222 83.8793 48.1543 84.5582 47.1459 85.6427C42.3919 90.65 36.5617 104.833 43.6219 114.201C52.4595 125.917 64.5627 121.835 80.3436 117L79.5994 113.232C79.5994 113.232 50.1716 117.204 53.3881 104.47C55.9649 94.387 59.4274 88.0785 55.1409 84.8472Z" fill="white"/>
<path d="M99.1319 96.9153C99.2549 97.1003 104.667 95.978 102.902 93.0858C101.137 90.1937 97.9142 95.0777 99.1319 96.9153Z" fill="#F4A28C"/>
<path d="M118.695 64.1333L116.235 63.7325C116.235 63.7325 116.573 61.494 115.534 60.0695C115.275 59.7326 114.95 59.453 114.579 59.2482C114.207 59.0434 113.797 58.9178 113.375 58.8793L113.732 56.4435C114.48 56.5255 115.204 56.7617 115.857 57.1374C116.51 57.513 117.078 58.02 117.526 58.6265C119.199 60.8835 118.695 63.9915 118.695 64.1333Z" fill="#F26B50"/>
<path d="M106.801 68.4993L104.808 67.0502C106.536 64.6575 108.529 63.3933 110.731 63.2947C114.242 63.1405 116.782 66.0635 116.881 66.1868L115.036 67.8087C115.036 67.8087 113.117 65.638 110.823 65.7613C109.415 65.8292 108.062 66.748 106.801 68.4993Z" fill="#F26B50"/>
<path d="M108.24 76.8983L105.829 76.4112C106.413 73.5128 107.674 71.5333 109.673 70.5343C112.748 68.9433 116.321 70.5343 116.475 70.6083L115.448 72.8468L115.958 71.7245L115.454 72.8468C115.454 72.8468 112.816 71.6875 110.774 72.7358C109.519 73.3833 108.671 74.7832 108.24 76.8983Z" fill="#F26B50"/>
<path d="M109.845 83.6138C109.445 80.6847 110.017 78.3845 111.536 76.7935C113.953 74.2652 117.822 74.592 117.982 74.6105L117.76 77.0772C117.76 77.0772 114.888 76.849 113.308 78.5202C112.336 79.5438 111.991 81.1472 112.287 83.287L109.845 83.6138Z" fill="#F26B50"/>
<path d="M122.336 63.381C122.336 63.2453 121.819 60.1435 123.467 57.8742C123.916 57.2674 124.484 56.7598 125.137 56.3831C125.79 56.0064 126.513 55.7688 127.262 55.685L127.625 58.1517C127.203 58.1863 126.794 58.3076 126.421 58.5082C126.049 58.7087 125.721 58.9841 125.46 59.3172C124.421 60.7417 124.759 62.9555 124.759 62.9802L122.336 63.381Z" fill="#F26B50"/>
<path d="M135.361 67.7593C134.131 66.008 132.748 65.0892 131.339 65.0213C129.064 64.9103 127.145 67.044 127.127 67.0625L125.282 65.4468C125.392 65.3235 127.945 62.3943 131.432 62.5547C133.633 62.6533 135.626 63.9175 137.354 66.3102L135.361 67.7593Z" fill="#F26B50"/>
<path d="M133.916 76.1583C133.492 74.0308 132.637 72.631 131.376 71.9897C129.341 70.9537 126.739 72.0945 126.715 72.1068L125.688 69.8622C125.835 69.7943 129.377 68.2033 132.489 69.7882C134.451 70.7933 135.743 72.7728 136.327 75.665L133.916 76.1583Z" fill="#F26B50"/>
<path d="M132.311 82.8677L129.851 82.5347C130.146 80.3887 129.802 78.7792 128.824 77.7555C127.244 76.109 124.408 76.3187 124.384 76.3248L124.156 73.8582C124.316 73.8582 128.185 73.5067 130.595 76.035C132.145 77.6445 132.717 79.9385 132.311 82.8677Z" fill="#F26B50"/>
<path opacity="0.08" d="M118.695 64.1333L116.235 63.7325C116.235 63.7325 116.573 61.494 115.534 60.0695C115.275 59.7326 114.95 59.453 114.579 59.2482C114.207 59.0434 113.797 58.9178 113.375 58.8793L113.732 56.4435C114.48 56.5255 115.204 56.7617 115.857 57.1374C116.51 57.513 117.078 58.02 117.526 58.6265C119.199 60.8835 118.695 63.9915 118.695 64.1333Z" fill="black"/>
<path opacity="0.08" d="M106.801 68.4993L104.808 67.0502C106.536 64.6575 108.529 63.3933 110.731 63.2947C114.242 63.1405 116.782 66.0635 116.881 66.1868L115.036 67.8087C115.036 67.8087 113.117 65.638 110.823 65.7613C109.415 65.8292 108.062 66.748 106.801 68.4993Z" fill="black"/>
<path opacity="0.08" d="M108.24 76.8983L105.829 76.4112C106.413 73.5128 107.674 71.5333 109.673 70.5343C112.748 68.9433 116.321 70.5343 116.475 70.6083L115.448 72.8468L115.958 71.7245L115.454 72.8468C115.454 72.8468 112.816 71.6875 110.774 72.7358C109.519 73.3833 108.671 74.7832 108.24 76.8983Z" fill="black"/>
<path opacity="0.08" d="M109.845 83.6138C109.445 80.6847 110.017 78.3845 111.536 76.7935C113.953 74.2652 117.822 74.592 117.982 74.6105L117.76 77.0772C117.76 77.0772 114.888 76.849 113.308 78.5202C112.336 79.5438 111.991 81.1472 112.287 83.287L109.845 83.6138Z" fill="black"/>
<path opacity="0.08" d="M122.336 63.381C122.336 63.2453 121.819 60.1435 123.467 57.8742C123.916 57.2674 124.484 56.7598 125.137 56.3831C125.79 56.0064 126.513 55.7688 127.262 55.685L127.625 58.1517C127.203 58.1863 126.794 58.3076 126.421 58.5082C126.049 58.7087 125.721 58.9841 125.46 59.3172C124.421 60.7417 124.759 62.9555 124.759 62.9802L122.336 63.381Z" fill="black"/>
<path opacity="0.08" d="M135.361 67.7593C134.131 66.008 132.748 65.0892 131.339 65.0213C129.064 64.9103 127.145 67.044 127.127 67.0625L125.282 65.4468C125.392 65.3235 127.945 62.3943 131.432 62.5547C133.633 62.6533 135.626 63.9175 137.354 66.3102L135.361 67.7593Z" fill="black"/>
<path opacity="0.08" d="M133.916 76.1583C133.492 74.0308 132.637 72.631 131.376 71.9897C129.341 70.9537 126.739 72.0945 126.715 72.1068L125.688 69.8622C125.835 69.7943 129.377 68.2033 132.489 69.7882C134.451 70.7933 135.743 72.7728 136.327 75.665L133.916 76.1583Z" fill="black"/>
<path opacity="0.08" d="M132.311 82.8677L129.851 82.5347C130.146 80.3887 129.802 78.7792 128.824 77.7555C127.244 76.109 124.408 76.3187 124.384 76.3248L124.156 73.8582C124.316 73.8582 128.185 73.5067 130.595 76.035C132.145 77.6445 132.717 79.9385 132.311 82.8677Z" fill="black"/>
<path d="M120.958 81.2027C125.995 81.2027 130.079 76.28 130.079 70.2075C130.079 64.135 125.995 59.2123 120.958 59.2123C115.921 59.2123 111.838 64.135 111.838 70.2075C111.838 76.28 115.921 81.2027 120.958 81.2027Z" fill="#F26B50"/>
<path opacity="0.3" d="M125.249 70.0189C126.938 69.1722 127.484 66.8337 126.468 64.7957C125.452 62.7577 123.259 61.792 121.57 62.6387C119.88 63.4854 119.335 65.8239 120.351 67.8619C121.367 69.8999 123.56 70.8656 125.249 70.0189Z" fill="white"/>
<path d="M68.2097 43.0557C69.7076 43.0557 70.9219 41.8381 70.9219 40.3362C70.9219 38.8342 69.7076 37.6167 68.2097 37.6167C66.7118 37.6167 65.4976 38.8342 65.4976 40.3362C65.4976 41.8381 66.7118 43.0557 68.2097 43.0557Z" fill="#24285B"/>
<path d="M76.2723 43.0557C77.7702 43.0557 78.9845 41.8381 78.9845 40.3362C78.9845 38.8342 77.7702 37.6167 76.2723 37.6167C74.7744 37.6167 73.5602 38.8342 73.5602 40.3362C73.5602 41.8381 74.7744 43.0557 76.2723 43.0557Z" fill="#F26B50"/>
<path d="M83.8675 43.0557C85.3654 43.0557 86.5797 41.8381 86.5797 40.3362C86.5797 38.8342 85.3654 37.6167 83.8675 37.6167C82.3697 37.6167 81.1554 38.8342 81.1554 40.3362C81.1554 41.8381 82.3697 43.0557 83.8675 43.0557Z" fill="#FFD200"/>
<path d="M176.05 90.8103H158.83V96.0458H176.05V90.8103Z" fill="#C9C9C9"/>
<path opacity="0.3" d="M176.05 45.8307H158.83V82.8677H176.05V45.8307Z" fill="#C9C9C9"/>
</svg>
