<svg width="79" height="79" viewBox="0 0 79 79" fill="none" xmlns="http://www.w3.org/2000/svg">
<rect width="79" height="79" rx="10" fill="#222222"/>
<mask id="mask0_209_101" style="mask-type:alpha" maskUnits="userSpaceOnUse" x="0" y="0" width="79" height="79">
<rect width="79" height="79" rx="10" fill="#222222"/>
</mask>
<g mask="url(#mask0_209_101)">
<path d="M21.831 63V31.896H31.623V63H21.831ZM26.759 27.608C25.223 27.608 23.943 27.096 22.919 26.072C21.9377 25.0053 21.447 23.7253 21.447 22.232C21.447 20.696 21.9377 19.416 22.919 18.392C23.943 17.368 25.223 16.856 26.759 16.856C28.295 16.856 29.5537 17.368 30.535 18.392C31.5163 19.416 32.007 20.696 32.007 22.232C32.007 23.7253 31.5163 25.0053 30.535 26.072C29.5537 27.096 28.295 27.608 26.759 27.608ZM35.2545 66.52L50.9345 14.68H59.4465L43.7665 66.52H35.2545Z" fill="#F26B50"/>
</g>
</svg>
