<svg width="28" height="28" viewBox="0 0 28 28" fill="none" xmlns="http://www.w3.org/2000/svg">
<rect width="28" height="28" rx="4" fill="#FBFBFB"/>
<g clip-path="url(#clip0_50_985)">
<path d="M13.8778 4.00511C13.837 4.00883 13.7069 4.02183 13.5899 4.03111C10.8913 4.27438 8.36354 5.73028 6.76256 7.96797C5.87107 9.21217 5.30088 10.6235 5.08543 12.1184C5.00929 12.6402 5 12.7943 5 13.5019C5 14.2094 5.00929 14.3635 5.08543 14.8853C5.60176 18.4526 8.14066 21.4499 11.5841 22.5604C12.2007 22.7591 12.8507 22.8946 13.5899 22.9763C13.8778 23.0079 15.1222 23.0079 15.4101 22.9763C16.686 22.8352 17.767 22.5195 18.833 21.9754C18.9965 21.8918 19.0281 21.8695 19.0058 21.851C18.9909 21.8398 18.2944 20.9058 17.4587 19.7767L15.9394 17.7247L14.0357 14.9076C12.9882 13.3589 12.1264 12.0924 12.119 12.0924C12.1115 12.0905 12.1041 13.3422 12.1004 14.8705C12.0948 17.5464 12.093 17.6541 12.0595 17.7173C12.0112 17.8083 11.9741 17.8454 11.8961 17.8863C11.8367 17.916 11.7847 17.9215 11.5042 17.9215H11.1829L11.0975 17.8677C11.0417 17.8324 11.0009 17.786 10.973 17.7321L10.934 17.6486L10.9377 13.9253L10.9433 10.2001L11.0009 10.1277C11.0306 10.0887 11.0937 10.0385 11.1383 10.0144C11.2145 9.97726 11.2442 9.97354 11.5655 9.97354C11.9444 9.97354 12.0075 9.9884 12.106 10.0961C12.1338 10.1258 13.1646 11.6783 14.3978 13.5483C15.6311 15.4183 17.3175 17.9717 18.1458 19.2252L19.6502 21.5037L19.7264 21.4536C20.4006 21.0153 21.1138 20.3914 21.6784 19.7414C22.8801 18.3617 23.6545 16.6792 23.9146 14.8853C23.9907 14.3635 24 14.2094 24 13.5019C24 12.7943 23.9907 12.6402 23.9146 12.1184C23.3982 8.55107 20.8593 5.55386 17.4159 4.44337C16.8086 4.24652 16.1623 4.11096 15.4379 4.02925C15.2596 4.01068 14.032 3.99026 13.8778 4.00511ZM17.767 9.7507C17.8561 9.79527 17.9285 9.88069 17.9545 9.96983C17.9694 10.0181 17.9731 11.0506 17.9694 13.3774L17.9638 16.7163L17.3751 15.8138L16.7845 14.9113V12.4842C16.7845 10.915 16.7919 10.033 16.803 9.99025C16.8327 9.88626 16.8978 9.80455 16.9869 9.75627C17.063 9.71727 17.0909 9.71356 17.3825 9.71356C17.6574 9.71356 17.7057 9.71727 17.767 9.7507Z" fill="black"/>
</g>
<defs>
<clipPath id="clip0_50_985">
<rect width="19" height="19" fill="white" transform="translate(5 4)"/>
</clipPath>
</defs>
</svg>
