<svg width="272" height="204" viewBox="0 0 272 204" fill="none" xmlns="http://www.w3.org/2000/svg">
<path opacity="0.45" d="M141.134 181.88C202.98 181.88 253.116 178.415 253.116 174.141C253.116 169.867 202.98 166.403 141.134 166.403C79.2878 166.403 29.1516 169.867 29.1516 174.141C29.1516 178.415 79.2878 181.88 141.134 181.88Z" fill="#E6E6E6"/>
<path d="M76.0784 122.346L70.04 141.603C69.2269 144.2 67.8861 146.602 66.1016 148.656C64.3172 150.711 62.1275 152.375 59.67 153.544L50.83 157.753L51.1836 160.364L64.4164 157.508C67.5203 156.589 70.3987 155.034 72.868 152.94C75.3372 150.847 77.343 148.262 78.7576 145.35L88.1008 126.113L76.0784 122.346Z" fill="#F4A28C"/>
<path opacity="0.19" d="M204.15 166.376C204.15 166.376 198.077 164.716 196.758 159.066C196.758 159.066 206.162 157.168 206.434 166.879L204.15 166.376Z" fill="#F26B50"/>
<path opacity="0.51" d="M204.898 165.777C204.898 165.777 200.654 159.072 204.388 152.803C204.388 152.803 211.541 157.345 208.359 165.791L204.898 165.777Z" fill="#F26B50"/>
<path d="M205.986 165.777C205.986 165.777 208.23 158.698 215.002 157.359C215.002 157.359 216.274 161.956 210.616 165.798L205.986 165.777Z" fill="#F26B50"/>
<path d="M201.586 165.621L202.817 174.039L210.569 174.073L211.711 165.662L201.586 165.621Z" fill="#24285B"/>
<path d="M191.08 63.2536H124.392V174.182H191.08V63.2536Z" fill="#24285B"/>
<path d="M185.34 19.8116L119.537 30.6345L123.698 55.9307L189.501 45.1077L185.34 19.8116Z" fill="#24285B"/>
<path d="M171.327 15.1528L132.053 21.5002L133.238 28.8313L172.512 22.4839L171.327 15.1528Z" fill="#F26B50"/>
<path opacity="0.07" d="M179.139 96.2948H136.211C132.722 96.2948 129.894 99.1231 129.894 102.612V107.719C129.894 111.208 132.722 114.036 136.211 114.036H179.139C182.628 114.036 185.456 111.208 185.456 107.719V102.612C185.456 99.1231 182.628 96.2948 179.139 96.2948Z" fill="white"/>
<path d="M175.324 109.936C177.946 109.936 180.071 107.811 180.071 105.189C180.071 102.568 177.946 100.443 175.324 100.443C172.703 100.443 170.578 102.568 170.578 105.189C170.578 107.811 172.703 109.936 175.324 109.936Z" fill="#F26B50"/>
<path d="M163.554 102.932H135.585V107.44H163.554V102.932Z" fill="white"/>
<path opacity="0.07" d="M179.139 70.4548H136.211C132.722 70.4548 129.894 73.2831 129.894 76.772V81.8788C129.894 85.3677 132.722 88.196 136.211 88.196H179.139C182.628 88.196 185.456 85.3677 185.456 81.8788V76.772C185.456 73.2831 182.628 70.4548 179.139 70.4548Z" fill="white"/>
<path d="M175.324 84.0956C177.946 84.0956 180.071 81.9706 180.071 79.3492C180.071 76.7278 177.946 74.6028 175.324 74.6028C172.703 74.6028 170.578 76.7278 170.578 79.3492C170.578 81.9706 172.703 84.0956 175.324 84.0956Z" fill="#F26B50"/>
<path d="M163.554 77.0916H135.585V81.6H163.554V77.0916Z" fill="white"/>
<path opacity="0.07" d="M174.7 26.1468L132.201 33.0154C128.747 33.5736 126.399 36.8261 126.958 40.2801L127.775 45.3359C128.333 48.7899 131.586 51.1374 135.04 50.5791L177.539 43.7106C180.993 43.1524 183.34 39.8998 182.782 36.4458L181.965 31.3901C181.407 27.9361 178.154 25.5886 174.7 26.1468Z" fill="white"/>
<path d="M171.877 39.7936C174.498 39.7936 176.623 37.6686 176.623 35.0472C176.623 32.4258 174.498 30.3008 171.877 30.3008C169.255 30.3008 167.13 32.4258 167.13 35.0472C167.13 37.6686 169.255 39.7936 171.877 39.7936Z" fill="#F26B50"/>
<path d="M159.892 34.725L132.295 39.2641L133.026 43.7127L160.624 39.1737L159.892 34.725Z" fill="white"/>
<path opacity="0.07" d="M179.139 123.257H136.211C132.722 123.257 129.894 126.085 129.894 129.574V134.681C129.894 138.17 132.722 140.998 136.211 140.998H179.139C182.628 140.998 185.456 138.17 185.456 134.681V129.574C185.456 126.085 182.628 123.257 179.139 123.257Z" fill="white"/>
<path d="M175.324 136.898C177.946 136.898 180.071 134.773 180.071 132.151C180.071 129.53 177.946 127.405 175.324 127.405C172.703 127.405 170.578 129.53 170.578 132.151C170.578 134.773 172.703 136.898 175.324 136.898Z" fill="#F26B50"/>
<path d="M163.554 129.894H135.585V134.402H163.554V129.894Z" fill="white"/>
<path opacity="0.07" d="M179.139 150.219H136.211C132.722 150.219 129.894 153.047 129.894 156.536V161.643C129.894 165.132 132.722 167.96 136.211 167.96H179.139C182.628 167.96 185.456 165.132 185.456 161.643V156.536C185.456 153.047 182.628 150.219 179.139 150.219Z" fill="white"/>
<path d="M175.324 163.86C177.946 163.86 180.071 161.735 180.071 159.113C180.071 156.492 177.946 154.367 175.324 154.367C172.703 154.367 170.578 156.492 170.578 159.113C170.578 161.735 172.703 163.86 175.324 163.86Z" fill="#F26B50"/>
<path d="M163.554 156.856H135.585V161.364H163.554V156.856Z" fill="white"/>
<path d="M96.0296 127.779L98.8584 169.021L96.2268 169.932L85.7548 131.349L96.0296 127.779Z" fill="#F4A28C"/>
<path d="M99.3956 169.728C99.3956 169.728 99.9668 172.169 101.81 172.931C103.652 173.692 102.721 176.331 99.9464 174.733C99.0839 174.231 98.2651 173.658 97.4984 173.019C96.7778 172.455 95.9221 172.089 95.0164 171.958C94.8472 171.928 94.6915 171.846 94.5699 171.725C94.4484 171.603 94.3669 171.448 94.3364 171.278C93.9624 169.918 97.0224 168.654 97.0224 168.654L99.3956 169.728Z" fill="#F26B50"/>
<path d="M51.1768 160.364C51.1768 160.364 49.3136 161.792 49.368 163.656C49.4224 165.519 46.7976 165.743 47.1172 162.758C47.2132 161.839 47.3861 160.929 47.634 160.038C47.8427 159.208 47.8263 158.337 47.5864 157.515C47.553 157.354 47.5688 157.187 47.6319 157.036C47.695 156.884 47.8024 156.755 47.94 156.665C48.9532 155.836 51.2176 157.957 51.2176 157.957L51.1768 160.364Z" fill="#F26B50"/>
<path d="M80.2468 68L81.226 71.9644L78.0096 73.6644L77.4452 66.878L80.2468 68Z" fill="#F4A28C"/>
<path d="M76.6904 63.0564C76.8802 62.7014 77.1555 62.3993 77.4914 62.1774C77.8273 61.9556 78.2133 61.821 78.6143 61.7859C79.0153 61.7508 79.4188 61.8163 79.7881 61.9764C80.1575 62.1365 80.4811 62.3861 80.7296 62.7028C81.9196 64.1988 83.3136 66.538 81.4096 67.5988C78.5468 69.224 76.3232 65.5588 76.3232 65.5588C76.2009 64.7067 76.3284 63.8374 76.6904 63.0564Z" fill="#F4A28C"/>
<path d="M43.8088 88.1013L58.1588 106.488L71.1477 96.3513L56.7976 77.9643L43.8088 88.1013Z" fill="#FFD200"/>
<path d="M63.4848 80.4372C63.4848 80.4372 49.64 102.088 52.4076 105.278C61.2068 115.396 80.7431 92.6024 80.7431 92.6024L63.4848 80.4372Z" fill="#F4A28C"/>
<path d="M94.8056 77.2072C90.8323 74.3057 86.0604 72.7011 81.1413 72.6122C76.2222 72.5234 71.3955 73.9547 67.32 76.7108C63.6956 79.1792 60.9008 82.8308 62.1792 88.2028C65.178 100.715 74.766 108.963 75.0992 119.972L97.7976 118.449V104.278C97.7918 102.938 98.0636 101.611 98.5962 100.381C99.1287 99.1506 99.9102 98.0442 100.892 97.1312C102.87 95.3088 104.836 92.3372 103.489 88.2504C102.265 84.626 99.1712 80.41 94.8056 77.2072Z" fill="#F26B50"/>
<path d="M78.4924 65.586C78.4924 65.586 77.8124 64.9468 77.4588 65.7492C77.1052 66.5516 78.2748 67.048 78.676 66.6604C79.0772 66.2728 78.4924 65.586 78.4924 65.586Z" fill="#F4A28C"/>
<path opacity="0.08" d="M83.5719 83.1028C83.5719 83.1028 78.6691 92.48 84.3607 101.619C90.0523 110.758 79.2607 119.694 79.2607 119.694L97.7703 118.449V110.371C97.7703 110.371 96.6279 100.171 100.157 97.852C100.157 97.852 106.196 93.5 102.945 86.9108C99.6947 80.3216 83.5719 83.1028 83.5719 83.1028Z" fill="black"/>
<path d="M74.12 77.52C74.5552 75.8268 76.5748 72.76 73.7256 67.1908C73.1272 66.0144 72.6512 63.2604 73.7868 61.3564C76.5068 56.7936 80.8452 58.3508 80.3284 60.9076C79.8116 63.4644 79.4512 64.6816 79.4512 64.6816C79.4512 64.6816 87.6928 70.5908 86.4892 74.9496C85.4216 78.7916 72.284 84.5512 74.12 77.52Z" fill="#24285B"/>
<path d="M74.0724 114.179H97.7704L101.544 146.968L66.3884 145.384L74.0724 114.179Z" fill="#24285B"/>
<path d="M84.5104 89.76C83.9504 89.0792 83.5312 88.294 83.2771 87.4499C83.023 86.6059 82.9391 85.7197 83.0301 84.8429C83.1212 83.9662 83.3856 83.1162 83.8078 82.3424C84.23 81.5686 84.8016 80.8863 85.4896 80.3352C86.8601 79.265 88.3105 78.3011 89.828 77.452C98.8652 72.2772 113.886 60.8396 120.21 45.0636C120.21 45.0636 121.693 39.2972 126.092 39.5012C130.492 39.7052 128.976 45.1724 124.596 45.118C124.596 45.118 121.013 79.3492 94.7172 92.0856C93.0021 92.8956 91.0647 93.1067 89.2154 92.6851C87.3661 92.2634 85.7117 91.2334 84.5172 89.76H84.5104Z" fill="#F4A28C"/>
<path d="M68 32.6332V45.1248H76.0716L77.8396 50.0956L79.9272 45.1248H87.9988V32.6332H68Z" fill="#E6E6E6"/>
<path opacity="0.12" d="M76.9896 41.6704C76.8993 41.6658 76.8112 41.6416 76.7313 41.5993C76.6514 41.557 76.5817 41.4977 76.5272 41.4256L74.4124 38.7056C74.3188 38.5743 74.2795 38.4118 74.3028 38.2522C74.3261 38.0927 74.4101 37.9482 74.5373 37.8491C74.6645 37.7499 74.8251 37.7038 74.9856 37.7202C75.146 37.7366 75.2939 37.8143 75.3984 37.9372L77.0576 40.0724L81.1376 35.6524C81.1931 35.5909 81.2602 35.541 81.3352 35.5056C81.4101 35.4702 81.4913 35.4501 81.5741 35.4463C81.6568 35.4426 81.7395 35.4553 81.8173 35.4838C81.8951 35.5123 81.9665 35.556 82.0273 35.6123C82.0881 35.6685 82.1371 35.7364 82.1715 35.8117C82.2059 35.8871 82.2249 35.9686 82.2276 36.0514C82.2302 36.1342 82.2163 36.2167 82.1868 36.2942C82.1573 36.3716 82.1127 36.4424 82.0556 36.5024L77.452 41.48C77.3919 41.5415 77.3199 41.5901 77.2404 41.6229C77.1609 41.6556 77.0756 41.6718 76.9896 41.6704Z" fill="black"/>
</svg>
