<svg width="28" height="28" viewBox="0 0 28 28" fill="none" xmlns="http://www.w3.org/2000/svg">
<rect width="28" height="28" rx="4" fill="#FBFBFB"/>
<g clip-path="url(#clip0_50_990)">
<path d="M15.3961 10.1312L14.7116 11.3244L12.3709 7.24286L5.1852 19.7708H10.0504C10.0504 20.4298 10.581 20.964 11.2356 20.964H5.1852C4.76182 20.964 4.37063 20.7364 4.15897 20.3673C3.94731 19.9981 3.94734 19.5434 4.15903 19.1742L11.3447 6.64629C11.5564 6.27711 11.9477 6.04968 12.3711 6.04968C12.7946 6.04968 13.1858 6.27711 13.3975 6.64629L15.3961 10.1312Z" fill="#00C58E"/>
<path d="M20.5832 19.1742L16.0805 11.3244L15.396 10.1312L14.7116 11.3244L10.2094 19.1742C9.99769 19.5434 9.99767 19.9981 10.2093 20.3673C10.421 20.7364 10.8122 20.9639 11.2356 20.9639H19.5556C19.979 20.9639 20.3704 20.7367 20.5822 20.3675C20.7939 19.9983 20.794 19.5434 20.5822 19.1742H20.5832ZM11.2356 19.7708L15.396 12.5175L19.5556 19.7708L11.2356 19.7708Z" fill="#2F495E"/>
<path d="M23.8025 20.3674C23.5908 20.7365 23.1996 20.964 22.7763 20.964H19.5556C20.2101 20.964 20.7407 20.4298 20.7407 19.7708H22.7738L17.0049 9.71216L16.0805 11.3244L15.3961 10.1312L15.9788 9.11559C16.1905 8.74641 16.5818 8.51898 17.0052 8.51898C17.4286 8.51898 17.8199 8.74641 18.0316 9.11559L23.8025 19.1742C24.0142 19.5434 24.0142 19.9982 23.8025 20.3674Z" fill="#108775"/>
</g>
<defs>
<clipPath id="clip0_50_990">
<rect width="20" height="15" fill="white" transform="translate(4 6)"/>
</clipPath>
</defs>
</svg>
