<svg width="52" height="52" viewBox="0 0 52 52" fill="none" xmlns="http://www.w3.org/2000/svg">
<circle cx="26" cy="26" r="26" fill="white"/>
<g clip-path="url(#clip0_20_219)">
<path d="M33.9553 17.3831C33.8738 17.3831 26.0075 17.51 26.0075 28.1584C26.0034 29.3531 26.3265 30.526 26.9416 31.5501C27.5568 32.5742 28.4406 33.4103 29.4972 33.9678C30.5538 34.5253 31.7428 34.7829 32.9354 34.7126C34.128 34.6424 35.2786 34.2469 36.2624 33.5692C37.2462 32.8915 38.0257 31.9574 38.5164 30.8682C39.007 29.779 39.1901 28.5762 39.0458 27.3903C38.9015 26.2044 38.4352 25.0807 37.6976 24.1409C36.96 23.2012 35.9792 22.4813 34.8616 22.0594L34.8616 18.2894C34.8616 18.049 34.7661 17.8185 34.5961 17.6486C34.4262 17.4786 34.1957 17.3831 33.9553 17.3831ZM37.2813 28.1584C37.2813 29.4131 36.7829 30.6163 35.8957 31.5035C35.0085 32.3907 33.8053 32.8891 32.5506 32.8891C31.296 32.8891 30.0927 32.3907 29.2056 31.5035C28.3184 30.6163 27.82 29.4131 27.82 28.1584C27.82 21.3616 31.3363 19.7213 33.0491 19.3225L33.0491 22.7209C33.0426 22.9267 33.1063 23.1286 33.2299 23.2934C33.3534 23.4581 33.5294 23.5758 33.7288 23.6272C34.7377 23.885 35.6331 24.4691 36.2756 25.2886C36.9181 26.1082 37.2717 27.1171 37.2813 28.1584Z" fill="#001E3F"/>
<path d="M19.8631 17.3831C19.7815 17.3831 11.9062 17.51 11.9062 28.1585C11.9028 29.3525 12.2261 30.5248 12.8413 31.5482C13.4565 32.5717 14.34 33.4072 15.3961 33.9645C16.4522 34.5217 17.6406 34.7792 18.8327 34.7093C20.0247 34.6393 21.1749 34.2445 22.1585 33.5676C23.1422 32.8907 23.9219 31.9575 24.4131 30.8691C24.9044 29.7808 25.0884 28.5787 24.9453 27.3933C24.8022 26.2078 24.3374 25.0841 23.6013 24.1438C22.8652 23.2036 21.8859 22.4828 20.7694 22.0594L20.7694 18.2894C20.7694 18.049 20.6739 17.8185 20.5039 17.6486C20.334 17.4786 20.1035 17.3831 19.8631 17.3831ZM23.18 28.1585C23.18 29.4131 22.6816 30.6163 21.7944 31.5035C20.9073 32.3907 19.704 32.8891 18.4494 32.8891C17.1947 32.8891 15.9915 32.3907 15.1043 31.5035C14.2171 30.6163 13.7187 29.4131 13.7187 28.1585C13.7187 21.3616 17.244 19.7213 18.9569 19.3225L18.9569 22.721C18.9503 22.9268 19.0141 23.1286 19.1377 23.2934C19.2612 23.4581 19.4372 23.5758 19.6365 23.6272C20.6438 23.8867 21.5372 24.4716 22.178 25.2909C22.8187 26.1103 23.171 27.1183 23.18 28.1585Z" fill="#001E3F"/>
</g>
<defs>
<clipPath id="clip0_20_219">
<rect width="29" height="29" fill="white" transform="translate(40 41) rotate(180)"/>
</clipPath>
</defs>
</svg>
