<svg width="28" height="28" viewBox="0 0 28 28" fill="none" xmlns="http://www.w3.org/2000/svg">
<rect width="28" height="28" rx="4" fill="#FBFBFB"/>
<g clip-path="url(#clip0_50_974)">
<path d="M3.40234 13.6297C3.40234 15.1637 4.99273 16.5957 7.5 17.4029C6.99931 19.7769 7.41032 21.6904 8.78296 22.4359C10.1938 23.2023 12.2957 22.6718 14.2908 21.0293C16.2355 22.6055 18.2009 23.2258 19.5723 22.4781C20.9819 21.7095 21.4106 19.6663 20.896 17.2181C23.5076 16.405 24.9684 15.1839 24.9684 13.6297C24.9684 12.1314 23.3751 10.8351 20.9016 10.0331C21.4555 7.48381 20.9862 5.61676 19.5566 4.84038C18.1785 4.09187 16.1902 4.74426 14.217 6.36168C12.164 4.64495 10.1954 4.12085 8.76744 4.89938C7.39057 5.65005 6.9977 7.59837 7.5 10.0163C5.07733 10.8118 3.40234 12.1374 3.40234 13.6297Z" fill="#FBFBFB"/>
<path d="M20.3778 10.8296C20.1739 10.7637 19.9683 10.7027 19.7612 10.6466C19.7956 10.5151 19.8273 10.3831 19.8565 10.2505C20.3232 8.11675 20.018 6.39779 18.976 5.83194C17.9769 5.28924 16.3428 5.85509 14.6925 7.2077C14.5299 7.34129 14.3709 7.47872 14.2156 7.61987C14.1117 7.52602 14.0059 7.43398 13.8983 7.34381C12.1687 5.8974 10.4351 5.28796 9.39412 5.85549C8.39596 6.39971 8.10031 8.01577 8.52048 10.0379C8.56228 10.2382 8.60948 10.4374 8.66203 10.6354C8.41673 10.701 8.17982 10.771 7.95317 10.8454C5.92549 11.5112 4.63049 12.5547 4.63049 13.6371C4.63049 14.7551 6.02059 15.8764 8.13269 16.5563C8.30395 16.6111 8.47664 16.662 8.65059 16.7088C8.59408 16.9221 8.54391 17.1368 8.50014 17.3528C8.09955 19.3398 8.41241 20.9175 9.40794 21.4584C10.4362 22.0168 12.1619 21.4428 13.8424 20.0593C13.9753 19.95 14.1086 19.834 14.2421 19.7124C14.4102 19.8652 14.5829 20.0136 14.7598 20.1573C16.3876 21.4765 17.9952 22.0093 18.9899 21.467C20.0172 20.9068 20.351 19.2119 19.9175 17.1498C19.8844 16.9922 19.8459 16.8314 19.8027 16.6676C19.9239 16.6339 20.0428 16.5991 20.1588 16.5628C22.3545 15.8777 23.783 14.77 23.783 13.6371C23.783 12.5508 22.4463 11.5002 20.3778 10.8296Z" fill="#53C1DE"/>
<path d="M19.9015 15.8314C19.7968 15.864 19.6893 15.8956 19.5798 15.9262C19.3374 15.2034 19.0102 14.4349 18.61 13.6409C18.992 12.8658 19.3064 12.1071 19.5421 11.389C19.738 11.4425 19.9282 11.4988 20.1114 11.5583C21.8838 12.1328 22.9649 12.9825 22.9649 13.6371C22.9649 14.3344 21.7972 15.2398 19.9015 15.8314ZM19.1149 17.2994C19.3065 18.2113 19.3339 19.0357 19.2069 19.6802C19.0928 20.2593 18.8635 20.6454 18.5799 20.8C17.9763 21.1291 16.6854 20.7014 15.2935 19.5732C15.1339 19.4438 14.9731 19.3057 14.8119 19.1596C15.3515 18.6037 15.8909 17.9573 16.4172 17.2396C17.3432 17.1623 18.2179 17.0358 19.0112 16.8631C19.0502 17.0116 19.085 17.1571 19.1149 17.2994ZM11.16 20.7432C10.5703 20.9393 10.1006 20.9449 9.81674 20.7908C9.21255 20.4627 8.96149 19.1957 9.30401 17.4965C9.34474 17.2957 9.39138 17.0959 9.44387 16.8976C10.2283 17.061 11.0967 17.1786 12.0249 17.2495C12.5547 17.9518 13.1097 18.5973 13.6689 19.1626C13.5501 19.2709 13.4284 19.3764 13.304 19.479C12.5609 20.0909 11.8163 20.5248 11.16 20.7432H11.16ZM8.39731 15.8271C7.4634 15.5264 6.69215 15.1357 6.16349 14.7094C5.68848 14.3262 5.44861 13.9458 5.44861 13.6371C5.44861 12.9803 6.48838 12.1425 8.22253 11.573C8.44019 11.5019 8.66002 11.4367 8.88173 11.3777C9.12143 12.1119 9.43582 12.8796 9.81521 13.6559C9.4309 14.4437 9.11203 15.2236 8.87011 15.9665C8.71132 15.9237 8.55368 15.8772 8.39731 15.8271ZM9.32342 9.88992C8.96344 8.15731 9.20247 6.85037 9.80402 6.52241C10.4448 6.17307 11.8616 6.67122 13.355 7.92005C13.4504 7.99988 13.5463 8.08346 13.6423 8.16992C13.0859 8.73266 12.5361 9.37332 12.0108 10.0715C11.11 10.1502 10.2478 10.2765 9.45506 10.4456C9.40623 10.2614 9.36234 10.0762 9.32342 9.88992ZM17.5849 11.8113C17.3977 11.5066 17.2035 11.2059 17.0025 10.9091C17.6137 10.9818 18.1991 11.0784 18.7489 11.1966C18.5838 11.6949 18.3781 12.2158 18.1359 12.7499C17.9589 12.4336 17.7752 12.1207 17.5849 11.8113ZM14.2159 8.72061C14.5932 9.10564 14.9712 9.53562 15.343 10.0021C14.5888 9.96852 13.8335 9.96836 13.0793 10.0016C13.4514 9.53945 13.8326 9.11011 14.2159 8.72061ZM10.8252 11.8165C10.6374 12.1235 10.4571 12.4345 10.2846 12.7494C10.0464 12.2171 9.8425 11.6938 9.67603 11.1885C10.2225 11.0733 10.8052 10.9792 11.4124 10.9077C11.2091 11.2063 11.0134 11.5093 10.8252 11.8165ZM11.4298 16.4215C10.8026 16.3556 10.2111 16.2662 9.66476 16.1542C9.83386 15.64 10.0422 15.1054 10.2856 14.5617C10.4588 14.8768 10.6398 15.1881 10.8285 15.4951C11.0211 15.8084 11.2216 16.1173 11.4298 16.4215ZM14.2385 18.6081C13.8507 18.2139 13.464 17.778 13.0862 17.3092C13.4529 17.3228 13.8267 17.3296 14.2067 17.3296C14.5971 17.3296 14.9831 17.3214 15.3629 17.3054C14.9899 17.7828 14.6133 18.2194 14.2385 18.6081ZM18.1437 14.534C18.3997 15.0836 18.6155 15.6153 18.7869 16.1209C18.2315 16.2402 17.632 16.3363 17.0002 16.4077C17.2027 16.1054 17.3987 15.7994 17.5882 15.4898C17.7809 15.1751 17.9661 14.8565 18.1437 14.534ZM16.8795 15.1048C16.5893 15.5795 16.2829 16.0452 15.9606 16.5011C15.3924 16.5394 14.8052 16.5591 14.2067 16.5591C13.6108 16.5591 13.031 16.5416 12.4727 16.5075C12.1421 16.0526 11.8298 15.5862 11.5366 15.1091C11.2448 14.6345 10.9723 14.1497 10.7195 13.6556C10.9716 13.1614 11.2434 12.6764 11.5342 12.2014V12.2016C11.8249 11.7265 12.1347 11.262 12.4628 10.8091C13.0324 10.7686 13.6165 10.7473 14.2068 10.7473C14.7998 10.7473 15.3846 10.7687 15.954 10.8096C16.2789 11.2618 16.5867 11.7247 16.8768 12.1973C17.1686 12.6712 17.444 13.1539 17.7025 13.6447C17.4467 14.1405 17.1721 14.6275 16.8795 15.1048ZM18.5673 6.4995C19.2086 6.84789 19.4581 8.25271 19.0551 10.095C19.0287 10.215 19 10.3346 18.969 10.4536C18.1744 10.2809 17.3116 10.1524 16.4082 10.0726C15.8819 9.36678 15.3366 8.725 14.7892 8.16952C14.9327 8.03928 15.0795 7.91241 15.2296 7.78904C16.6436 6.63003 17.9652 6.17243 18.5673 6.4995Z" fill="white"/>
<path d="M14.2067 12.0263C15.1513 12.0263 15.9169 12.7475 15.9169 13.6371C15.9169 14.5267 15.1513 15.248 14.2067 15.248C13.2622 15.248 12.4965 14.5267 12.4965 13.6371C12.4965 12.7475 13.2622 12.0263 14.2067 12.0263Z" fill="#53C1DE"/>
</g>
<defs>
<clipPath id="clip0_50_974">
<rect width="21.7" height="18.3615" fill="white" transform="translate(3.33844 4.46893)"/>
</clipPath>
</defs>
</svg>
