<svg width="28" height="28" viewBox="0 0 28 28" fill="none" xmlns="http://www.w3.org/2000/svg">
<rect width="28" height="28" rx="4" fill="#FBFBFB"/>
<path d="M20.5 11.51C19.7501 11.2517 19.0881 10.7873 18.59 10.17C18.041 9.48225 17.3421 8.92916 16.5465 8.55304C15.7509 8.17693 14.8799 7.98777 14 8.00002C12.8164 7.9162 11.6446 8.28126 10.718 9.02253C9.79143 9.76379 9.17804 10.8269 9 12C9.35067 11.4133 9.87845 10.9529 10.5074 10.6851C11.1363 10.4174 11.834 10.3561 12.5 10.51C13.2487 10.7758 13.9096 11.2429 14.41 11.86C14.962 12.5423 15.6623 13.0897 16.4577 13.4605C17.2531 13.8313 18.1226 14.0159 19 14C20.1836 14.0838 21.3554 13.7188 22.282 12.9775C23.2086 12.2363 23.822 11.1732 24 10C23.6557 10.5938 23.1296 11.0611 22.4994 11.333C21.8691 11.6049 21.1682 11.667 20.5 11.51ZM7.5 16.49C8.24995 16.7483 8.91192 17.2127 9.41 17.83C9.95895 18.5178 10.6579 19.0709 11.4535 19.447C12.2491 19.8231 13.1201 20.0123 14 20C15.1836 20.0838 16.3554 19.7188 17.282 18.9775C18.2086 18.2363 18.822 17.1732 19 16C18.6493 16.5868 18.1215 17.0472 17.4926 17.3149C16.8637 17.5826 16.166 17.644 15.5 17.49C14.7513 17.2242 14.0904 16.7571 13.59 16.14C13.0366 15.4594 12.336 14.9133 11.5409 14.5426C10.7459 14.1719 9.8771 13.9864 9 14C7.81637 13.9162 6.64458 14.2813 5.71801 15.0225C4.79143 15.7638 4.17804 16.8269 4 18C4.34431 17.4062 4.87041 16.9389 5.50063 16.667C6.13086 16.3951 6.83181 16.3331 7.5 16.49Z" fill="#39BCF8"/>
</svg>
