<svg width="28" height="28" viewBox="0 0 28 28" fill="none" xmlns="http://www.w3.org/2000/svg">
<rect width="28" height="28" fill="#007ACC"/>
<path d="M0 4C0 1.79086 1.79086 0 4 0H23.6281C25.8372 0 27.6281 1.79086 27.6281 4V23.6281C27.6281 25.8372 25.8372 27.6281 23.6281 27.6281H4C1.79086 27.6281 0 25.8372 0 23.6281V4Z" fill="#007ACC"/>
<path d="M6.58824 8.23529H23.0588V24.7059H6.58824V8.23529Z" fill="#FBFBFB"/>
<path d="M3.29412 26.3529H24.7059V4.94118H3.29412V26.3529ZM20.5486 14.7906C21.0614 14.9096 21.5275 15.1778 21.8881 15.5614C22.0866 15.7681 22.2592 15.9982 22.402 16.2466C22.402 16.274 21.477 16.8992 20.9134 17.2487C20.8929 17.2624 20.8107 17.1733 20.7199 17.038C20.617 16.8604 20.4708 16.7119 20.295 16.6062C20.1192 16.5004 19.9194 16.4409 19.7144 16.4333C19.0652 16.3888 18.6472 16.7296 18.6506 17.2898C18.6453 17.4292 18.6772 17.5676 18.7431 17.6906C18.8853 17.9869 19.1508 18.1634 19.9833 18.5231C21.5164 19.1826 22.1724 19.6177 22.5801 20.236C23.0358 20.9212 23.1368 22.0278 22.8285 22.8465C22.4859 23.7373 21.6466 24.3419 20.4595 24.5424C19.9173 24.6045 19.3695 24.5987 18.8288 24.5252C18.0035 24.3914 17.2422 23.9984 16.6551 23.4033C16.4581 23.1857 16.0744 22.6187 16.0984 22.5776C16.1609 22.5312 16.2267 22.4894 16.2953 22.4526L17.0833 22.0004L17.6982 21.6441L17.8267 21.8342C18.0435 22.1443 18.3194 22.4086 18.6386 22.6119C19.3238 22.9716 20.2591 22.9219 20.7216 22.5057C20.8769 22.3531 20.9737 22.151 20.9953 21.9344C21.0169 21.7178 20.9619 21.5005 20.8398 21.3203C20.6685 21.0822 20.3259 20.8818 19.3684 20.4638C18.2635 19.9877 17.7873 19.693 17.3522 19.2237C17.0806 18.914 16.8801 18.5485 16.7647 18.1531C16.6786 17.7013 16.6659 17.2386 16.727 16.7827C16.9548 15.7156 17.7548 14.9704 18.923 14.7495C19.464 14.6825 20.012 14.6975 20.5486 14.794V14.7906ZM15.5228 15.6882V16.5652H12.7427V24.4841H10.7711V16.5635H7.98415V15.707C7.97667 15.4122 7.98467 15.1171 8.00813 14.8231C8.01841 14.8094 9.72107 14.8026 11.7766 14.806H15.5125L15.5228 15.6882Z" fill="#007ACC"/>
</svg>
